# xmcd CD database file
#
# Track frame offsets:
#	150
#	20210
#	35899
#	52712
#	70744
#	90202
#	112777
#	129747
#	145395
#	161931
#	183459
#
# Disc length: 2692 seconds
#
# Revision: 1
# Processed by: cddbd v1.5.2PL0 Copyright (c) Steve Scherf et al.
# Submitted via: CDex 1.70beta2
#
DISCID=960a820b
DTITLE=アツミサオリ - アナタとわたしと君と僕
DYEAR=2005
DGENRE=Vocal
TTITLE0=真夜中のラジオ
TTITLE1=恋愛論
TTITLE2=愛をください
TTITLE3=彼女
TTITLE4=僕の声
TTITLE5=一番星ひとつだけ
TTITLE6=果てしない旅
TTITLE7=泣かないで
TTITLE8=天気雨
TTITLE9=夕焼けが見える場所
TTITLE10=キャッチボール
EXTD=YEAR: 2005
EXTT0=
EXTT1=
EXTT2=
EXTT3=
EXTT4=
EXTT5=
EXTT6=
EXTT7=
EXTT8=
EXTT9=
EXTT10=
PLAYORDER=
